<?xml version="1.0" encoding="us-ascii" standalone="no"?><svg xmlns="http://www.w3.org/2000/svg" xmlns:xlink="http://www.w3.org/1999/xlink" contentStyleType="text/css" height="1587px" preserveAspectRatio="none" style="width:767px;height:1587px;background:#FFFFFF;" version="1.1" viewBox="0 0 767 1587" width="767px" zoomAndPan="magnify"><defs/><g><!--class StreamingClient--><g id="elem_StreamingClient"><rect codeLine="1" fill="#F1F1F1" height="143.3955" id="StreamingClient" rx="2.5" ry="2.5" style="stroke:#181818;stroke-width:0.5;" width="540" x="88.5" y="7"/><ellipse cx="304.25" cy="23" fill="#ADD1B2" rx="11" ry="11" style="stroke:#181818;stroke-width:1.0;"/><path d="M307.0156,18.875 Q307.1719,18.6563 307.3594,18.5469 Q307.5469,18.4375 307.7656,18.4375 Q308.1406,18.4375 308.375,18.7031 Q308.6094,18.9531 308.6094,19.5625 L308.6094,21.0156 Q308.6094,21.625 308.375,21.8906 Q308.1406,22.1563 307.7656,22.1563 Q307.4219,22.1563 307.2188,21.9531 Q307.0156,21.7656 306.9063,21.25 Q306.8594,20.8906 306.6719,20.7031 Q306.3438,20.3281 305.7344,20.1094 Q305.125,19.8906 304.5,19.8906 Q303.7344,19.8906 303.0938,20.2188 Q302.4688,20.5469 301.9688,21.2969 Q301.4844,22.0469 301.4844,23.0781 L301.4844,24.1719 Q301.4844,25.4063 302.375,26.2344 Q303.2656,27.0469 304.8594,27.0469 Q305.7969,27.0469 306.4531,26.7969 Q306.8438,26.6406 307.2656,26.2031 Q307.5313,25.9375 307.6719,25.8594 Q307.8281,25.7813 308.0313,25.7813 Q308.3594,25.7813 308.6094,26.0469 Q308.875,26.2969 308.875,26.6406 Q308.875,26.9844 308.5313,27.3906 Q308.0313,27.9688 307.2344,28.2969 Q306.1563,28.75 304.8594,28.75 Q303.3438,28.75 302.1406,28.125 Q301.1563,27.625 300.4688,26.5625 Q299.7813,25.4844 299.7813,24.2031 L299.7813,23.0469 Q299.7813,21.7188 300.3906,20.5781 Q301.0156,19.4219 302.1094,18.8125 Q303.2031,18.1875 304.4375,18.1875 Q305.1719,18.1875 305.8125,18.3594 Q306.4688,18.5156 307.0156,18.875 Z " fill="#000000"/><text fill="#000000" font-family="sans-serif" font-size="14" lengthAdjust="spacing" textLength="100" x="324.75" y="29.1558">StreamingClient</text><line style="stroke:#181818;stroke-width:0.5;" x1="89.5" x2="627.5" y1="39" y2="39"/><ellipse cx="99.5" cy="54.0396" fill="none" rx="3" ry="3" style="stroke:#038048;stroke-width:1.0;"/><text fill="#000000" font-family="sans-serif" font-size="14" lengthAdjust="spacing" textLength="82" x="108.5" y="58.6953">std::string url</text><line style="stroke:#181818;stroke-width:0.5;" x1="89.5" x2="627.5" y1="66.0791" y2="66.0791"/><ellipse cx="99.5" cy="81.1187" fill="#84BE84" rx="3" ry="3" style="stroke:#038048;stroke-width:1.0;"/><text fill="#000000" font-family="sans-serif" font-size="14" lengthAdjust="spacing" textLength="309" x="108.5" y="85.7744">StreamingClient(StreamingClientOptions options)</text><text fill="#000000" font-family="sans-serif" font-size="14" lengthAdjust="spacing" textLength="4" x="108.5" y="104.8535">&#160;</text><rect fill="#F24D5C" height="6" style="stroke:#C82930;stroke-width:1.0;" width="6" x="96.5" y="116.2769"/><text fill="#000000" font-family="sans-serif" font-size="14" lengthAdjust="spacing" textLength="460" x="108.5" y="123.9326">StreamAsrJob createStreamAsrJob(CreateStreamAsrJobOptions options)</text><rect fill="#F24D5C" height="6" style="stroke:#C82930;stroke-width:1.0;" width="6" x="96.5" y="135.356"/><text fill="#000000" font-family="sans-serif" font-size="14" lengthAdjust="spacing" textLength="514" x="108.5" y="143.0117">StreamAsrJob connectToStreamAsrJob(ConnectToStreamAsrJobObtions options)</text></g><!--class StreamAsrJob--><g id="elem_StreamAsrJob"><rect codeLine="10" fill="#F1F1F1" height="353.2656" id="StreamAsrJob" rx="2.5" ry="2.5" style="stroke:#181818;stroke-width:0.5;" width="637" x="40" y="210"/><ellipse cx="310.25" cy="226" fill="#ADD1B2" rx="11" ry="11" style="stroke:#181818;stroke-width:1.0;"/><path d="M313.0156,221.875 Q313.1719,221.6563 313.3594,221.5469 Q313.5469,221.4375 313.7656,221.4375 Q314.1406,221.4375 314.375,221.7031 Q314.6094,221.9531 314.6094,222.5625 L314.6094,224.0156 Q314.6094,224.625 314.375,224.8906 Q314.1406,225.1563 313.7656,225.1563 Q313.4219,225.1563 313.2188,224.9531 Q313.0156,224.7656 312.9063,224.25 Q312.8594,223.8906 312.6719,223.7031 Q312.3438,223.3281 311.7344,223.1094 Q311.125,222.8906 310.5,222.8906 Q309.7344,222.8906 309.0938,223.2188 Q308.4688,223.5469 307.9688,224.2969 Q307.4844,225.0469 307.4844,226.0781 L307.4844,227.1719 Q307.4844,228.4063 308.375,229.2344 Q309.2656,230.0469 310.8594,230.0469 Q311.7969,230.0469 312.4531,229.7969 Q312.8438,229.6406 313.2656,229.2031 Q313.5313,228.9375 313.6719,228.8594 Q313.8281,228.7813 314.0313,228.7813 Q314.3594,228.7813 314.6094,229.0469 Q314.875,229.2969 314.875,229.6406 Q314.875,229.9844 314.5313,230.3906 Q314.0313,230.9688 313.2344,231.2969 Q312.1563,231.75 310.8594,231.75 Q309.3438,231.75 308.1406,231.125 Q307.1563,230.625 306.4688,229.5625 Q305.7813,228.4844 305.7813,227.2031 L305.7813,226.0469 Q305.7813,224.7188 306.3906,223.5781 Q307.0156,222.4219 308.1094,221.8125 Q309.2031,221.1875 310.4375,221.1875 Q311.1719,221.1875 311.8125,221.3594 Q312.4688,221.5156 313.0156,221.875 Z " fill="#000000"/><text fill="#000000" font-family="sans-serif" font-size="14" lengthAdjust="spacing" textLength="88" x="330.75" y="232.1558">StreamAsrJob</text><line style="stroke:#181818;stroke-width:0.5;" x1="41" x2="676" y1="242" y2="242"/><ellipse cx="51" cy="257.0396" fill="none" rx="3" ry="3" style="stroke:#038048;stroke-width:1.0;"/><text fill="#000000" font-family="sans-serif" font-size="14" lengthAdjust="spacing" textLength="184" x="60" y="261.6953">*WebSocketConnection conn</text><ellipse cx="51" cy="276.1187" fill="none" rx="3" ry="3" style="stroke:#038048;stroke-width:1.0;"/><text fill="#000000" font-family="sans-serif" font-size="14" lengthAdjust="spacing" textLength="156" x="60" y="280.7744">*StreamAsrJobCore core</text><ellipse cx="51" cy="295.1978" fill="none" rx="3" ry="3" style="stroke:#038048;stroke-width:1.0;"/><text fill="#000000" font-family="sans-serif" font-size="14" lengthAdjust="spacing" textLength="194" x="60" y="299.8535">chan Utterance utteranceChan</text><ellipse cx="51" cy="314.2769" fill="none" rx="3" ry="3" style="stroke:#038048;stroke-width:1.0;"/><text fill="#000000" font-family="sans-serif" font-size="14" lengthAdjust="spacing" textLength="67" x="60" y="318.9326">Error error</text><line style="stroke:#181818;stroke-width:0.5;" x1="41" x2="676" y1="326.3164" y2="326.3164"/><ellipse cx="51" cy="341.356" fill="#84BE84" rx="3" ry="3" style="stroke:#038048;stroke-width:1.0;"/><text fill="#000000" font-family="sans-serif" font-size="14" lengthAdjust="spacing" textLength="515" x="60" y="346.0117">StreamAsrJob(std::string url, int channelCount, std::function&lt;StreamAsrJobCore&gt;)</text><text fill="#000000" font-family="sans-serif" font-size="14" lengthAdjust="spacing" textLength="4" x="60" y="365.0908">&#160;</text><ellipse cx="51" cy="379.5142" fill="#84BE84" rx="3" ry="3" style="stroke:#038048;stroke-width:1.0;"/><text fill="#000000" font-family="sans-serif" font-size="14" lengthAdjust="spacing" textLength="558" x="60" y="384.1699">*StreamAsrJob CreateStreamAsrJob(std::string url, CreateStreamAsrJobOptions options)</text><ellipse cx="51" cy="398.5933" fill="#84BE84" rx="3" ry="3" style="stroke:#038048;stroke-width:1.0;"/><text fill="#000000" font-family="sans-serif" font-size="14" lengthAdjust="spacing" textLength="611" x="60" y="403.249">*StreamAsrJob ConnectToStreamAsrJob(std::string utl, ConnectToStreamAsrJobOptions options)</text><text fill="#000000" font-family="sans-serif" font-size="14" lengthAdjust="spacing" textLength="4" x="60" y="422.3281">&#160;</text><rect fill="#F24D5C" height="6" style="stroke:#C82930;stroke-width:1.0;" width="6" x="48" y="433.7515"/><text fill="#000000" font-family="sans-serif" font-size="14" lengthAdjust="spacing" textLength="263" x="60" y="441.4072">Error processMessage(std::string msgStr)</text><rect fill="#F24D5C" height="6" style="stroke:#C82930;stroke-width:1.0;" width="6" x="48" y="452.8306"/><text fill="#000000" font-family="sans-serif" font-size="14" lengthAdjust="spacing" textLength="61" x="60" y="460.4863">void run()</text><rect fill="#F24D5C" height="6" style="stroke:#C82930;stroke-width:1.0;" width="6" x="48" y="471.9097"/><text fill="#000000" font-family="sans-serif" font-size="14" lengthAdjust="spacing" textLength="162" x="60" y="479.5654">void subscribeUtterance()</text><rect fill="#F24D5C" height="6" style="stroke:#C82930;stroke-width:1.0;" width="6" x="48" y="490.9888"/><text fill="#000000" font-family="sans-serif" font-size="14" lengthAdjust="spacing" textLength="382" x="60" y="498.6445">Error enqueueAudioData(int channelIndex, byte[] audioData)</text><rect fill="#F24D5C" height="6" style="stroke:#C82930;stroke-width:1.0;" width="6" x="48" y="510.0679"/><text fill="#000000" font-family="sans-serif" font-size="14" lengthAdjust="spacing" textLength="207" x="60" y="517.7236">void finishEnqueuingAudioData()</text><rect fill="#F24D5C" height="6" style="stroke:#C82930;stroke-width:1.0;" width="6" x="48" y="529.147"/><text fill="#000000" font-family="sans-serif" font-size="14" lengthAdjust="spacing" textLength="243" x="60" y="536.8027">(StreamAsrJobDetail, Error) jobDetail()</text><rect fill="#F24D5C" height="6" style="stroke:#C82930;stroke-width:1.0;" width="6" x="48" y="548.2261"/><text fill="#000000" font-family="sans-serif" font-size="14" lengthAdjust="spacing" textLength="65" x="60" y="555.8818">Error Err()</text></g><!--class ConnectionInterface--><g id="elem_ConnectionInterface"><rect codeLine="30" fill="#F1F1F1" height="86.1582" id="ConnectionInterface" rx="2.5" ry="2.5" style="stroke:#181818;stroke-width:0.5;" width="309" x="7" y="1437.5"/><ellipse cx="58.75" cy="1453.5" fill="#B4A7E5" rx="11" ry="11" style="stroke:#181818;stroke-width:1.0;"/><path d="M59.7031,1450.1406 L59.7031,1456.7969 L61.4219,1456.7969 Q62.0313,1456.7969 62.2969,1457.0313 Q62.5625,1457.2656 62.5625,1457.6563 Q62.5625,1458.0313 62.2969,1458.2656 Q62.0313,1458.5 61.4219,1458.5 L56.2813,1458.5 Q55.6719,1458.5 55.4063,1458.2656 Q55.1406,1458.0313 55.1406,1457.6406 Q55.1406,1457.2656 55.4063,1457.0313 Q55.6719,1456.7969 56.2813,1456.7969 L58,1456.7969 L58,1450.1406 L56.2813,1450.1406 Q55.6719,1450.1406 55.4063,1449.9063 Q55.1406,1449.6719 55.1406,1449.2813 Q55.1406,1448.9063 55.4063,1448.6719 Q55.6719,1448.4375 56.2813,1448.4375 L61.4219,1448.4375 Q62.0313,1448.4375 62.2969,1448.6719 Q62.5625,1448.9063 62.5625,1449.2813 Q62.5625,1449.6719 62.2969,1449.9063 Q62.0313,1450.1406 61.4219,1450.1406 L59.7031,1450.1406 Z " fill="#000000"/><text fill="#000000" font-family="sans-serif" font-size="14" font-style="italic" lengthAdjust="spacing" textLength="128" x="79.25" y="1459.6558">ConnectionInterface</text><rect fill="#FFFFFF" height="18.3535" style="stroke:#181818;stroke-width:1.0;stroke-dasharray:2.0,2.0;" width="67" x="252" y="1434.5"/><text fill="#000000" font-family="sans-serif" font-size="12" font-style="italic" lengthAdjust="spacing" textLength="65" x="253" y="1448.9531">typename T</text><line style="stroke:#181818;stroke-width:0.5;" x1="8" x2="315" y1="1469.5" y2="1469.5"/><line style="stroke:#181818;stroke-width:0.5;" x1="8" x2="315" y1="1477.5" y2="1477.5"/><ellipse cx="18" cy="1492.5396" fill="#84BE84" rx="3" ry="3" style="stroke:#038048;stroke-width:1.0;"/><text fill="#000000" font-family="sans-serif" font-size="14" lengthAdjust="spacing" textLength="283" x="27" y="1497.1953">SetOnReconnect(std::function onReconnect)</text><ellipse cx="18" cy="1511.6187" fill="#84BE84" rx="3" ry="3" style="stroke:#038048;stroke-width:1.0;"/><text fill="#000000" font-family="sans-serif" font-size="14" lengthAdjust="spacing" textLength="113" x="27" y="1516.2744">Send(T message)</text></g><!--class StreamAsrJobCore--><g id="elem_StreamAsrJobCore"><rect codeLine="35" fill="#F1F1F1" height="696.6895" id="StreamAsrJobCore" rx="2.5" ry="2.5" style="stroke:#181818;stroke-width:0.5;" width="676" x="20.5" y="623"/><ellipse cx="294.75" cy="639" fill="#ADD1B2" rx="11" ry="11" style="stroke:#181818;stroke-width:1.0;"/><path d="M297.5156,634.875 Q297.6719,634.6563 297.8594,634.5469 Q298.0469,634.4375 298.2656,634.4375 Q298.6406,634.4375 298.875,634.7031 Q299.1094,634.9531 299.1094,635.5625 L299.1094,637.0156 Q299.1094,637.625 298.875,637.8906 Q298.6406,638.1563 298.2656,638.1563 Q297.9219,638.1563 297.7188,637.9531 Q297.5156,637.7656 297.4063,637.25 Q297.3594,636.8906 297.1719,636.7031 Q296.8438,636.3281 296.2344,636.1094 Q295.625,635.8906 295,635.8906 Q294.2344,635.8906 293.5938,636.2188 Q292.9688,636.5469 292.4688,637.2969 Q291.9844,638.0469 291.9844,639.0781 L291.9844,640.1719 Q291.9844,641.4063 292.875,642.2344 Q293.7656,643.0469 295.3594,643.0469 Q296.2969,643.0469 296.9531,642.7969 Q297.3438,642.6406 297.7656,642.2031 Q298.0313,641.9375 298.1719,641.8594 Q298.3281,641.7813 298.5313,641.7813 Q298.8594,641.7813 299.1094,642.0469 Q299.375,642.2969 299.375,642.6406 Q299.375,642.9844 299.0313,643.3906 Q298.5313,643.9688 297.7344,644.2969 Q296.6563,644.75 295.3594,644.75 Q293.8438,644.75 292.6406,644.125 Q291.6563,643.625 290.9688,642.5625 Q290.2813,641.4844 290.2813,640.2031 L290.2813,639.0469 Q290.2813,637.7188 290.8906,636.5781 Q291.5156,635.4219 292.6094,634.8125 Q293.7031,634.1875 294.9375,634.1875 Q295.6719,634.1875 296.3125,634.3594 Q296.9688,634.5156 297.5156,634.875 Z " fill="#000000"/><text fill="#000000" font-family="sans-serif" font-size="14" lengthAdjust="spacing" textLength="119" x="315.25" y="645.1558">StreamAsrJobCore</text><line style="stroke:#181818;stroke-width:0.5;" x1="21.5" x2="695.5" y1="655" y2="655"/><rect fill="none" height="6" style="stroke:#C82930;stroke-width:1.0;" width="6" x="28.5" y="667.0396"/><text fill="#000000" font-family="sans-serif" font-size="14" lengthAdjust="spacing" textLength="162" x="40.5" y="674.6953">ConnectionInterface conn</text><text fill="#000000" font-family="sans-serif" font-size="14" lengthAdjust="spacing" textLength="4" x="40.5" y="693.7744">&#160;</text><rect fill="none" height="6" style="stroke:#C82930;stroke-width:1.0;" width="6" x="28.5" y="705.1978"/><text fill="#000000" font-family="sans-serif" font-size="14" lengthAdjust="spacing" textLength="107" x="40.5" y="712.8535">int channelCount</text><rect fill="none" height="6" style="stroke:#C82930;stroke-width:1.0;" width="6" x="28.5" y="724.2769"/><text fill="#000000" font-family="sans-serif" font-size="14" lengthAdjust="spacing" textLength="166" x="40.5" y="731.9326">AudioBuffer[] audioBuffers</text><rect fill="none" height="6" style="stroke:#C82930;stroke-width:1.0;" width="6" x="28.5" y="743.356"/><text fill="#000000" font-family="sans-serif" font-size="14" lengthAdjust="spacing" textLength="230" x="40.5" y="751.0117">bool isNextFragmentIndicesInitialized</text><rect fill="none" height="6" style="stroke:#C82930;stroke-width:1.0;" width="6" x="28.5" y="762.4351"/><text fill="#000000" font-family="sans-serif" font-size="14" lengthAdjust="spacing" textLength="158" x="40.5" y="770.0908">int[] nextFragmentIndices</text><rect fill="none" height="6" style="stroke:#C82930;stroke-width:1.0;" width="6" x="28.5" y="781.5142"/><text fill="#000000" font-family="sans-serif" font-size="14" lengthAdjust="spacing" textLength="156" x="40.5" y="789.1699">bool isJobDetailInitialized</text><rect fill="none" height="6" style="stroke:#C82930;stroke-width:1.0;" width="6" x="28.5" y="800.5933"/><text fill="#000000" font-family="sans-serif" font-size="14" lengthAdjust="spacing" textLength="183" x="40.5" y="808.249">StreamAsrJobDetail jobDetail</text><rect fill="none" height="6" style="stroke:#C82930;stroke-width:1.0;" width="6" x="28.5" y="819.6724"/><text fill="#000000" font-family="sans-serif" font-size="14" lengthAdjust="spacing" textLength="189" x="40.5" y="827.3281">bool isNextFragmentSendable</text><rect fill="none" height="6" style="stroke:#C82930;stroke-width:1.0;" width="6" x="28.5" y="838.7515"/><text fill="#000000" font-family="sans-serif" font-size="14" lengthAdjust="spacing" textLength="229" x="40.5" y="846.4072">bool isEnqueuingAudioDataFinished</text><rect fill="none" height="6" style="stroke:#C82930;stroke-width:1.0;" width="6" x="28.5" y="857.8306"/><text fill="#000000" font-family="sans-serif" font-size="14" lengthAdjust="spacing" textLength="185" x="40.5" y="865.4863">bool isCloseJobMessageSent</text><rect fill="none" height="6" style="stroke:#C82930;stroke-width:1.0;" width="6" x="28.5" y="876.9097"/><text fill="#000000" font-family="sans-serif" font-size="14" lengthAdjust="spacing" textLength="145" x="40.5" y="884.5654">int errorMessageCount</text><rect fill="none" height="6" style="stroke:#C82930;stroke-width:1.0;" width="6" x="28.5" y="895.9888"/><text fill="#000000" font-family="sans-serif" font-size="14" lengthAdjust="spacing" textLength="191" x="40.5" y="903.6445">int nextSendingFragmentIndex</text><text fill="#000000" font-family="sans-serif" font-size="14" lengthAdjust="spacing" textLength="4" x="40.5" y="922.7236">&#160;</text><rect fill="none" height="6" style="stroke:#C82930;stroke-width:1.0;" width="6" x="28.5" y="934.147"/><text fill="#000000" font-family="sans-serif" font-size="14" lengthAdjust="spacing" textLength="267" x="40.5" y="941.8027">std::function&lt;Utterance&gt; onUtteranceFunc</text><line style="stroke:#181818;stroke-width:0.5;" x1="21.5" x2="695.5" y1="949.1865" y2="949.1865"/><ellipse cx="31.5" cy="964.2261" fill="#84BE84" rx="3" ry="3" style="stroke:#038048;stroke-width:1.0;"/><text fill="#000000" font-family="sans-serif" font-size="14" lengthAdjust="spacing" textLength="406" x="40.5" y="968.8818">StreamAsrJobCore(ConnectionInterface conn, int channelCount)</text><ellipse cx="31.5" cy="983.3052" fill="#84BE84" rx="3" ry="3" style="stroke:#038048;stroke-width:1.0;"/><text fill="#000000" font-family="sans-serif" font-size="14" lengthAdjust="spacing" textLength="650" x="40.5" y="987.9609">CreateStreamAsrJobMessage buildCreateStreamAsrJobMessage(CreateStreamAsrJobOptions options)</text><text fill="#000000" font-family="sans-serif" font-size="14" lengthAdjust="spacing" textLength="4" x="40.5" y="1007.04">&#160;</text><rect fill="#F24D5C" height="6" style="stroke:#C82930;stroke-width:1.0;" width="6" x="28.5" y="1018.4634"/><text fill="#000000" font-family="sans-serif" font-size="14" lengthAdjust="spacing" textLength="368" x="40.5" y="1026.1191">createStreamAsrJob(CreateStreamAsrJobOptions options)</text><rect fill="#F24D5C" height="6" style="stroke:#C82930;stroke-width:1.0;" width="6" x="28.5" y="1037.5425"/><text fill="#000000" font-family="sans-serif" font-size="14" lengthAdjust="spacing" textLength="422" x="40.5" y="1045.1982">connectToStreamAsrJob(ConnectToStreamAsrJobOptions options)</text><rect fill="#F24D5C" height="6" style="stroke:#C82930;stroke-width:1.0;" width="6" x="28.5" y="1056.6216"/><text fill="#000000" font-family="sans-serif" font-size="14" lengthAdjust="spacing" textLength="94" x="40.5" y="1064.2773">onReconnect()</text><rect fill="#F24D5C" height="6" style="stroke:#C82930;stroke-width:1.0;" width="6" x="28.5" y="1075.7007"/><text fill="#000000" font-family="sans-serif" font-size="14" lengthAdjust="spacing" textLength="234" x="40.5" y="1083.3564">onErrorMessage(ErrorMessage msg)</text><rect fill="#F24D5C" height="6" style="stroke:#C82930;stroke-width:1.0;" width="6" x="28.5" y="1094.7798"/><text fill="#000000" font-family="sans-serif" font-size="14" lengthAdjust="spacing" textLength="286" x="40.5" y="1102.4355">onJobDetailMessage(JobDetailMessage msg)</text><rect fill="#F24D5C" height="6" style="stroke:#C82930;stroke-width:1.0;" width="6" x="28.5" y="1113.8589"/><text fill="#000000" font-family="sans-serif" font-size="14" lengthAdjust="spacing" textLength="400" x="40.5" y="1121.5146">onJobStatusUpdatedMessage(JobStatusUpdatedMessage msg)</text><rect fill="#F24D5C" height="6" style="stroke:#C82930;stroke-width:1.0;" width="6" x="28.5" y="1132.938"/><text fill="#000000" font-family="sans-serif" font-size="14" lengthAdjust="spacing" textLength="622" x="40.5" y="1140.5938">onAudioFragmentSubmissionProgressMessage(AudioFragmentSubmissionProgressMessage msg)</text><rect fill="#F24D5C" height="6" style="stroke:#C82930;stroke-width:1.0;" width="6" x="28.5" y="1152.0171"/><text fill="#000000" font-family="sans-serif" font-size="14" lengthAdjust="spacing" textLength="430" x="40.5" y="1159.6729">onTemporaryUtteranceMessage(TemporaryUtteranceMessage msg)</text><rect fill="#F24D5C" height="6" style="stroke:#C82930;stroke-width:1.0;" width="6" x="28.5" y="1171.0962"/><text fill="#000000" font-family="sans-serif" font-size="14" lengthAdjust="spacing" textLength="292" x="40.5" y="1178.752">onUtteranceMessage(UtteranceMessage msg)</text><rect fill="#F24D5C" height="6" style="stroke:#C82930;stroke-width:1.0;" width="6" x="28.5" y="1190.1753"/><text fill="#000000" font-family="sans-serif" font-size="14" lengthAdjust="spacing" textLength="185" x="40.5" y="1197.8311">onReceiveMessageTimeout()</text><rect fill="#F24D5C" height="6" style="stroke:#C82930;stroke-width:1.0;" width="6" x="28.5" y="1209.2544"/><text fill="#000000" font-family="sans-serif" font-size="14" lengthAdjust="spacing" textLength="309" x="40.5" y="1216.9102">enqueueAudioData(int channelIndex, byte[] data)</text><rect fill="#F24D5C" height="6" style="stroke:#C82930;stroke-width:1.0;" width="6" x="28.5" y="1228.3335"/><text fill="#000000" font-family="sans-serif" font-size="14" lengthAdjust="spacing" textLength="177" x="40.5" y="1235.9893">finishEnqueuingAudioData()</text><rect fill="#F24D5C" height="6" style="stroke:#C82930;stroke-width:1.0;" width="6" x="28.5" y="1247.4126"/><text fill="#000000" font-family="sans-serif" font-size="14" lengthAdjust="spacing" textLength="211" x="40.5" y="1255.0684">(bool, Error) isAllAudioDataSent()</text><rect fill="#F24D5C" height="6" style="stroke:#C82930;stroke-width:1.0;" width="6" x="28.5" y="1266.4917"/><text fill="#000000" font-family="sans-serif" font-size="14" lengthAdjust="spacing" textLength="230" x="40.5" y="1274.1475">(bool continueLoop, Error err) step()</text><rect fill="#F24D5C" height="6" style="stroke:#C82930;stroke-width:1.0;" width="6" x="28.5" y="1285.5708"/><text fill="#000000" font-family="sans-serif" font-size="14" lengthAdjust="spacing" textLength="326" x="40.5" y="1293.2266">setOnUtteranceFunc(std::function&lt;Utterance&gt; func)</text><rect fill="#F24D5C" height="6" style="stroke:#C82930;stroke-width:1.0;" width="6" x="28.5" y="1304.6499"/><text fill="#000000" font-family="sans-serif" font-size="14" lengthAdjust="spacing" textLength="242" x="40.5" y="1312.3057">(StreamAsrJobDetail, error) jobDetail()</text></g><!--class AudioBuffer--><g id="elem_AudioBuffer"><rect codeLine="73" fill="#F1F1F1" height="200.6328" id="AudioBuffer" rx="2.5" ry="2.5" style="stroke:#181818;stroke-width:0.5;" width="409" x="351" y="1380"/><ellipse cx="514.25" cy="1396" fill="#ADD1B2" rx="11" ry="11" style="stroke:#181818;stroke-width:1.0;"/><path d="M517.0156,1391.875 Q517.1719,1391.6563 517.3594,1391.5469 Q517.5469,1391.4375 517.7656,1391.4375 Q518.1406,1391.4375 518.375,1391.7031 Q518.6094,1391.9531 518.6094,1392.5625 L518.6094,1394.0156 Q518.6094,1394.625 518.375,1394.8906 Q518.1406,1395.1563 517.7656,1395.1563 Q517.4219,1395.1563 517.2188,1394.9531 Q517.0156,1394.7656 516.9063,1394.25 Q516.8594,1393.8906 516.6719,1393.7031 Q516.3438,1393.3281 515.7344,1393.1094 Q515.125,1392.8906 514.5,1392.8906 Q513.7344,1392.8906 513.0938,1393.2188 Q512.4688,1393.5469 511.9688,1394.2969 Q511.4844,1395.0469 511.4844,1396.0781 L511.4844,1397.1719 Q511.4844,1398.4063 512.375,1399.2344 Q513.2656,1400.0469 514.8594,1400.0469 Q515.7969,1400.0469 516.4531,1399.7969 Q516.8438,1399.6406 517.2656,1399.2031 Q517.5313,1398.9375 517.6719,1398.8594 Q517.8281,1398.7813 518.0313,1398.7813 Q518.3594,1398.7813 518.6094,1399.0469 Q518.875,1399.2969 518.875,1399.6406 Q518.875,1399.9844 518.5313,1400.3906 Q518.0313,1400.9688 517.2344,1401.2969 Q516.1563,1401.75 514.8594,1401.75 Q513.3438,1401.75 512.1406,1401.125 Q511.1563,1400.625 510.4688,1399.5625 Q509.7813,1398.4844 509.7813,1397.2031 L509.7813,1396.0469 Q509.7813,1394.7188 510.3906,1393.5781 Q511.0156,1392.4219 512.1094,1391.8125 Q513.2031,1391.1875 514.4375,1391.1875 Q515.1719,1391.1875 515.8125,1391.3594 Q516.4688,1391.5156 517.0156,1391.875 Z " fill="#000000"/><text fill="#000000" font-family="sans-serif" font-size="14" lengthAdjust="spacing" textLength="74" x="534.75" y="1402.1558">AudioBuffer</text><line style="stroke:#181818;stroke-width:0.5;" x1="352" x2="759" y1="1412" y2="1412"/><rect fill="none" height="6" style="stroke:#C82930;stroke-width:1.0;" width="6" x="359" y="1424.0396"/><text fill="#000000" font-family="sans-serif" font-size="14" lengthAdjust="spacing" textLength="73" x="371" y="1431.6953">byte[] bytes</text><rect fill="none" height="6" style="stroke:#C82930;stroke-width:1.0;" width="6" x="359" y="1443.1187"/><text fill="#000000" font-family="sans-serif" font-size="14" lengthAdjust="spacing" textLength="141" x="371" y="1450.7744">int fromFragmentIndex</text><rect fill="none" height="6" style="stroke:#C82930;stroke-width:1.0;" width="6" x="359" y="1462.1978"/><text fill="#000000" font-family="sans-serif" font-size="14" lengthAdjust="spacing" textLength="136" x="371" y="1469.8535">int bytesPerFragment</text><rect fill="none" height="6" style="stroke:#C82930;stroke-width:1.0;" width="6" x="359" y="1481.2769"/><text fill="#000000" font-family="sans-serif" font-size="14" lengthAdjust="spacing" textLength="186" x="371" y="1488.9326">int discardableFragmentIndex</text><rect fill="none" height="6" style="stroke:#C82930;stroke-width:1.0;" width="6" x="359" y="1500.356"/><text fill="#000000" font-family="sans-serif" font-size="14" lengthAdjust="spacing" textLength="78" x="371" y="1508.0117">Mutex mutex</text><line style="stroke:#181818;stroke-width:0.5;" x1="352" x2="759" y1="1515.3955" y2="1515.3955"/><ellipse cx="362" cy="1530.4351" fill="#84BE84" rx="3" ry="3" style="stroke:#038048;stroke-width:1.0;"/><text fill="#000000" font-family="sans-serif" font-size="14" lengthAdjust="spacing" textLength="192" x="371" y="1535.0908">AppendAudioData(byte[] data)</text><ellipse cx="362" cy="1549.5142" fill="#84BE84" rx="3" ry="3" style="stroke:#038048;stroke-width:1.0;"/><text fill="#000000" font-family="sans-serif" font-size="14" lengthAdjust="spacing" textLength="383" x="371" y="1554.1699">GetFragmentAt(int fragmentIndex, bool isRecordingFinished)</text><ellipse cx="362" cy="1568.5933" fill="#84BE84" rx="3" ry="3" style="stroke:#038048;stroke-width:1.0;"/><text fill="#000000" font-family="sans-serif" font-size="14" lengthAdjust="spacing" textLength="278" x="371" y="1573.249">ReleaseAudioDataBefore(int fragmentIndex)</text></g><!--link StreamingClient to StreamAsrJob--><g id="link_StreamingClient_StreamAsrJob"><path codeLine="85" d="M358.5,150.09 C358.5,168.35 358.5,182.86 358.5,203.94 " fill="none" id="StreamingClient-to-StreamAsrJob" style="stroke:#181818;stroke-width:1.0;stroke-dasharray:7.0,7.0;"/><polygon fill="#181818" points="358.5,209.94,362.5,200.94,358.5,204.94,354.5,200.94,358.5,209.94" style="stroke:#181818;stroke-width:1.0;"/></g><!--reverse link StreamAsrJob to StreamAsrJobCore--><g id="link_StreamAsrJob_StreamAsrJobCore"><path codeLine="86" d="M358.5,575.21 C358.5,594.4 358.5,602.4 358.5,622.77 " fill="none" id="StreamAsrJob-backto-StreamAsrJobCore" style="stroke:#181818;stroke-width:1.0;"/><polygon fill="#181818" points="358.5,563.21,354.5,569.21,358.5,575.21,362.5,569.21,358.5,563.21" style="stroke:#181818;stroke-width:1.0;"/></g><!--reverse link StreamAsrJobCore to ConnectionInterface--><g id="link_StreamAsrJobCore_ConnectionInterface"><path codeLine="87" d="M216.9081,1336.9069 C198.8081,1383.4669 189.16,1408.32 177.88,1437.35 " fill="none" id="StreamAsrJobCore-backto-ConnectionInterface" style="stroke:#181818;stroke-width:1.0;stroke-dasharray:7.0,7.0;"/><polygon fill="none" points="223.43,1320.13,211.3158,1334.7329,222.5004,1339.0809,223.43,1320.13" style="stroke:#181818;stroke-width:1.0;"/></g><!--link StreamAsrJobCore to AudioBuffer--><g id="link_StreamAsrJobCore_AudioBuffer"><path codeLine="88" d="M495.7439,1325.7223 C503.9539,1346.8423 505.2427,1350.1651 512.3827,1368.5351 " fill="none" id="StreamAsrJobCore-AudioBuffer" style="stroke:#181818;stroke-width:1.0;"/><polygon fill="#181818" points="493.57,1320.13,493.1026,1329.9678,495.3816,1324.7903,500.5591,1327.0692,493.57,1320.13" style="stroke:#181818;stroke-width:1.0;"/><polygon fill="#181818" points="516.73,1379.72,518.2846,1372.6785,512.3827,1368.5351,510.8281,1375.5767,516.73,1379.72" style="stroke:#181818;stroke-width:1.0;"/></g><!--SRC=[fLR9Rjim43tNNy6ZdCJ-W20mu3X9aQ9fWjX53qKFb3Hss4gaoYLmklnxkOaIHJbrKGEMpLaUXxCyggYm4CXzrf83hWdThIe2LAAV4oCz5R8yFnUIQmLIl9euwS0u6wpl6qaO5OYvtwdpcZchfU3lM8uA_Lz2NvIj4b42D8B3A8L2RbWCDIQzpmTeloUJmgOWGlGdF_a4-PeLtq1wCErZT_Fgli-AST0w3avNF66AFae97DC2a6h_hRJSMLnppZW2yunIwiCVPFqC4LqHWqgXMZ55vHco9bj5RLmNms0MBbKZeQ8qo-bsHrPYY3nQYWXS6l3HseotZCjJmra1GjpfBzv1X5YBdORnZV7CI8cuebb_BLGk2avo20LfrRu8zBi21KjL4dQ59SvwkRwb9UpFKFuYuVCNX5kJFloMK2AUhYs83gY3yKPP_vHN837HAR0xJz7NLX97f9-PRKuT2V0jrYtKjU1jAxkGBmrGN0FQB7JFlZbTWxodZ-078eiQ1B5ECxMsjCmsg7OPFJ09jgirycnaTpS9BkfXSpgfpSIbscw1jxbpA-7qEMCL8k83xEKDnxjQyuPEDz65lgL44boH7r263JG4JIqZf93Vn3yjGPVwWy6O5E6yWiWWhVEDhN-xapTRLKo0tinth8QINQhir7jDBrz6POvezjKRz4uA-uakGZpmePaNkhHXSQFL8tnY2faTAc9ABdwuKnBmGQDSaQeyg3w6nzsH_-CE-1VQ7mNe3KGMHDUzqcJzXU6PO1MwgBKS2eRMQucb4X-RKX-jx3cDoIDVssMX8LLU4o7q6Huus_4U8Hvd5Y5le6uOn_mbz4uBTb0J-ITkhrhhL0DvRbKRKWDJ8Ut74t3PSUzVQTTCOY1Q8fPL5MpCE4PsPWuaeGhUCzPu9pEcKttBGjEQ2iElqQXb1sVIo5wx022z0085zuZJlulC_FdDZ-ZOOijP7TD4K5dB1-2jkjEKH1IOMsORyRrJ4lQeDa_F8yj6tp9bbz-a5ATl8N3cKcOki1wmhfuZHJDlt5ARfqpl_mWLOD7L_nAsXgyI89kYuMlgVBw8xgn9z4PoCfibDzeakU8kVitdOpViYELiTjAlpny0]--></g></svg>